<?xml version="1.0" standalone="no"?>
<!DOCTYPE svg PUBLIC "-//W3C//DTD SVG 1.0//EN" "http://www.w3.org/TR/2001/REC-SVG-20010904/DTD/svg10.dtd">
<svg version="1.1" xmlns="http://www.w3.org/2000/svg" xmlns:xlink="http://www.w3.org/1999/xlink" x="0px" y="0px" viewBox="0 0 600 600" style="enable-background:new 0 0 600 600;" xml:space="preserve" xmlns:inkscape ="http://www.inkscape.org/namespaces/inkscape" >
<desc>CopyRight:SVG Design Editor;
configurationStart;Unit=smInches;Dpi=96;Division=4;Grid=True;Zoom=1;CanvasW=600;CanvasH=600;configurationEnd;</desc>

<style type="text/css" xmlns:inkscape ="http://www.inkscape.org/namespaces/inkscape" >

	.st0{display:none;}
	.st1{display:inline;}
	.st2{fill:#24346B;}
	.st3{fill:#10CFC9;}
	.st4{fill:#66665C;}
	.st5{fill:#D0D0CE;}
	.st6{fill:#1D1D1B;}
	.st7{fill:#FFFFFF;}
</style>




<g inkscape:label = "arl Default Layer" inkscape:groupmode = "layer" ><g id="group_101">
<g id="group_181">
<path style="fill:#24346B;stroke:none; stroke-width:1" d="m380.83,228.15l0,87.81c0,19.97 -10.76,38.53 -28.09,48.46l-52.74,30.14l-52.73,-30.14c-17.33,-9.93 -28.09,-28.49 -28.09,-48.46l0,-87.81l4.1,-2.33c23.33,-13.33 49.86,-20.38 76.73,-20.38c26.87,0 53.41,7.05 76.73,20.38l4.09,2.33z" class = " st2" transform = "matrix(3.091073,0,0,3.091076,-629.1733,-629.4423)" vector-effect="non-scaling-stroke" pen = "3.091101,3.091101" />
<path style="fill:#10CFC9;stroke:none; stroke-width:1" d="m300,274.42l-72.7,-41.55l0,83.09c0,17.12 9.17,32.94 24.05,41.44l0.19,0.11l0,-27.7l24.24,13.85l0,27.69l24.22,13.86l0,-83.09l24.24,-13.84l0,83.08l24.23,-13.84l0.01,-0.01l0,-82.8l24.23,-13.85l0,-27.98l-72.71,41.54zm-24.23,41.54l-24.24,-13.85l0,-27.69l24.24,13.85l0,27.69z" class = " st3" transform = "matrix(3.091078,0,0,3.091076,-629.174,-629.4423)" vector-effect="non-scaling-stroke" pen = "3.091104,3.091103" />
</g>
</g>
</g>
</svg>
